<svg width="20" height="20" viewBox="0 0 20 20" fill="none" xmlns="http://www.w3.org/2000/svg">
<path fill-rule="evenodd" clip-rule="evenodd" d="M7.60247 13.1367C7.41047 13.1367 7.21847 13.0637 7.07247 12.9167C6.77947 12.6237 6.77947 12.1497 7.07247 11.8567L11.8645 7.06472C12.1575 6.77172 12.6315 6.77172 12.9245 7.06472C13.2175 7.35772 13.2175 7.83172 12.9245 8.12472L8.13247 12.9167C7.98647 13.0637 7.79447 13.1367 7.60247 13.1367Z" fill="black"/>
<path fill-rule="evenodd" clip-rule="evenodd" d="M12.3965 13.1395C12.2045 13.1395 12.0125 13.0665 11.8665 12.9195L7.07052 8.12252C6.77752 7.82952 6.77752 7.35552 7.07052 7.06252C7.36452 6.76952 7.83852 6.76952 8.13052 7.06252L12.9265 11.8595C13.2195 12.1525 13.2195 12.6265 12.9265 12.9195C12.7805 13.0665 12.5875 13.1395 12.3965 13.1395Z" fill="black"/>
<path fill-rule="evenodd" clip-rule="evenodd" d="M5.665 1.5C3.135 1.5 1.5 3.233 1.5 5.916V14.084C1.5 16.767 3.135 18.5 5.665 18.5H14.333C16.864 18.5 18.5 16.767 18.5 14.084V5.916C18.5 3.233 16.864 1.5 14.334 1.5H5.665ZM14.333 20H5.665C2.276 20 0 17.622 0 14.084V5.916C0 2.378 2.276 0 5.665 0H14.334C17.723 0 20 2.378 20 5.916V14.084C20 17.622 17.723 20 14.333 20Z" fill="black"/>
</svg>
