<svg width="13" height="14" viewBox="0 0 13 14" fill="none" xmlns="http://www.w3.org/2000/svg">
<path fill-rule="evenodd" clip-rule="evenodd" d="M6.16439 13.6666C5.26106 13.6666 4.38039 13.6566 3.50906 13.6386C2.39439 13.6166 1.62306 12.8939 1.49706 11.7526C1.28706 9.85927 0.927727 5.3966 0.924394 5.35194C0.901727 5.0766 1.10706 4.83527 1.38239 4.81327C1.65373 4.80594 1.89906 4.9966 1.92106 5.27127C1.92439 5.3166 2.28306 9.76394 2.49106 11.6426C2.56239 12.2913 2.91239 12.6259 3.52973 12.6386C5.19639 12.6739 6.89706 12.6759 8.73039 12.6426C9.38639 12.6299 9.74106 12.3019 9.81439 11.6379C10.0211 9.77527 10.3811 5.3166 10.3851 5.27127C10.4071 4.9966 10.6504 4.8046 10.9231 4.81327C11.1984 4.83594 11.4037 5.0766 11.3817 5.35194C11.3777 5.39727 11.0164 9.87127 10.8084 11.7479C10.6791 12.9126 9.90973 13.6213 8.74839 13.6426C7.85973 13.6579 7.00239 13.6666 6.16439 13.6666Z" fill="black"/>
<path fill-rule="evenodd" clip-rule="evenodd" d="M11.8053 3.65942H0.5C0.224 3.65942 0 3.43542 0 3.15942C0 2.88342 0.224 2.65942 0.5 2.65942H11.8053C12.0813 2.65942 12.3053 2.88342 12.3053 3.15942C12.3053 3.43542 12.0813 3.65942 11.8053 3.65942Z" fill="black"/>
<path fill-rule="evenodd" clip-rule="evenodd" d="M9.62694 3.6595C8.86827 3.6595 8.2096 3.11883 8.06027 2.37483L7.89827 1.56416C7.86427 1.44083 7.7236 1.3335 7.5636 1.3335H4.7416C4.5816 1.3335 4.44094 1.44083 4.40027 1.59483L4.24494 2.37483C4.09627 3.11883 3.43694 3.6595 2.67827 3.6595C2.40227 3.6595 2.17827 3.4355 2.17827 3.1595C2.17827 2.8835 2.40227 2.6595 2.67827 2.6595C2.96227 2.6595 3.20894 2.45683 3.26494 2.17816L3.42694 1.3675C3.5916 0.746163 4.1296 0.333496 4.7416 0.333496H7.5636C8.1756 0.333496 8.7136 0.746163 8.8716 1.3375L9.04094 2.17816C9.09627 2.45683 9.34294 2.6595 9.62694 2.6595C9.90294 2.6595 10.1269 2.8835 10.1269 3.1595C10.1269 3.4355 9.90294 3.6595 9.62694 3.6595Z" fill="black"/>
</svg>
