<svg width="14" height="13" viewBox="0 0 14 13" fill="none" xmlns="http://www.w3.org/2000/svg">
<path fill-rule="evenodd" clip-rule="evenodd" d="M12.8339 12.6265H7.99854C7.72254 12.6265 7.49854 12.4025 7.49854 12.1265C7.49854 11.8505 7.72254 11.6265 7.99854 11.6265H12.8339C13.1099 11.6265 13.3339 11.8505 13.3339 12.1265C13.3339 12.4025 13.1099 12.6265 12.8339 12.6265" fill="black"/>
<mask id="mask0_252_1211" style="mask-type:luminance" maskUnits="userSpaceOnUse" x="0" y="0" width="12" height="13">
<path fill-rule="evenodd" clip-rule="evenodd" d="M0.333549 0H11.7873V12.6264H0.333549V0Z" fill="white"/>
</mask>
<g mask="url(#mask0_252_1211)">
<path fill-rule="evenodd" clip-rule="evenodd" d="M7.7404 1.34443L1.46373 9.19443C1.34973 9.3371 1.30773 9.5211 1.34973 9.69776L1.80373 11.6211L3.82973 11.5958C4.0224 11.5938 4.2004 11.5078 4.3184 11.3611C6.46307 8.67776 10.5517 3.56176 10.6677 3.41176C10.7771 3.23443 10.8197 2.98376 10.7624 2.74243C10.7037 2.4951 10.5497 2.2851 10.3277 2.1511C10.2804 2.11843 9.15706 1.24643 9.1224 1.2191C8.69973 0.880428 8.08307 0.939095 7.7404 1.34443V1.34443ZM1.40907 12.6264C1.17773 12.6264 0.976399 12.4678 0.922399 12.2418L0.376399 9.92776C0.263732 9.44843 0.375732 8.95376 0.683066 8.56976L6.96307 0.715095C6.96573 0.712428 6.96773 0.709095 6.9704 0.706428C7.65907 -0.116905 8.9044 -0.238238 9.7444 0.435762C9.77773 0.461762 10.8931 1.32843 10.8931 1.32843C11.2984 1.56976 11.6151 2.0011 11.7351 2.51176C11.8544 3.01709 11.7677 3.53843 11.4897 3.97909C11.4691 4.01176 11.4511 4.03976 5.09907 11.9864C4.79307 12.3678 4.3344 12.5898 3.84173 12.5958L1.41573 12.6264H1.40907Z" fill="black"/>
</g>
<path fill-rule="evenodd" clip-rule="evenodd" d="M9.8156 5.78983C9.70893 5.78983 9.60227 5.75583 9.51093 5.6865L5.87627 2.8945C5.6576 2.7265 5.61627 2.41316 5.78427 2.19316C5.95293 1.9745 6.26627 1.93383 6.4856 2.10183L10.1209 4.89316C10.3396 5.06116 10.3809 5.37516 10.2123 5.5945C10.1143 5.7225 9.9656 5.78983 9.8156 5.78983" fill="black"/>
</svg>
