<svg width="29" height="28" viewBox="0 0 29 28" fill="none" xmlns="http://www.w3.org/2000/svg">
<mask id="mask0_252_886" style="mask-type:luminance" maskUnits="userSpaceOnUse" x="2" y="1" width="25" height="26">
<path fill-rule="evenodd" clip-rule="evenodd" d="M2.83337 1.16699H26.7498V26.2562H2.83337V1.16699Z" fill="white"/>
</mask>
<g mask="url(#mask0_252_886)">
<path fill-rule="evenodd" clip-rule="evenodd" d="M16.503 17.8399C17.9076 17.8399 19.051 18.975 19.051 20.3704V23.959C19.051 24.2589 19.2913 24.4992 19.5993 24.5062H21.823C23.5753 24.5062 24.9998 23.0992 24.9998 21.3702V11.1922C24.9916 10.5972 24.7081 10.0372 24.2216 9.66504L16.5298 3.53071C15.4973 2.71287 14.053 2.71287 13.017 3.53304L5.37763 9.66271C4.87246 10.0465 4.58896 10.6065 4.58313 11.212V21.3702C4.58313 23.0992 6.00763 24.5062 7.75996 24.5062H10.0046C10.3208 24.5062 10.5775 24.2554 10.5775 23.9474C10.5775 23.8797 10.5856 23.812 10.5996 23.7479V20.3704C10.5996 18.9832 11.736 17.8492 13.1301 17.8399H16.503ZM21.823 26.2562H19.5783C18.2926 26.2259 17.301 25.2167 17.301 23.959V20.3704C17.301 19.9399 16.9428 19.5899 16.503 19.5899H13.136C12.7055 19.5922 12.3496 19.9434 12.3496 20.3704V23.9474C12.3496 24.0349 12.338 24.1189 12.3135 24.1982C12.1875 25.3532 11.2005 26.2562 10.0046 26.2562H7.75996C5.0428 26.2562 2.83313 24.064 2.83313 21.3702V11.2039C2.8448 10.0442 3.37913 8.98254 4.30196 8.28371L11.9261 2.16454C13.605 0.83454 15.9441 0.83454 17.6195 2.16221L25.2985 8.28721C26.2003 8.97437 26.7346 10.0337 26.7498 11.1794V21.3702C26.7498 24.064 24.5401 26.2562 21.823 26.2562Z" fill="#19191B"/>
</g>
</svg>
