<svg width="26" height="26" viewBox="0 0 26 26" fill="none" xmlns="http://www.w3.org/2000/svg">
<path fill-rule="evenodd" clip-rule="evenodd" d="M12.8749 17.8468C12.3919 17.8468 11.9999 17.4548 11.9999 16.9718V8.42358C11.9999 7.94058 12.3919 7.54858 12.8749 7.54858C13.3579 7.54858 13.7499 7.94058 13.7499 8.42358V16.9718C13.7499 17.4548 13.3579 17.8468 12.8749 17.8468Z" fill="#AFB1B6"/>
<path fill-rule="evenodd" clip-rule="evenodd" d="M17.1525 13.572H8.59729C8.11312 13.572 7.72229 13.18 7.72229 12.697C7.72229 12.214 8.11312 11.822 8.59729 11.822H17.1525C17.6355 11.822 18.0275 12.214 18.0275 12.697C18.0275 13.18 17.6355 13.572 17.1525 13.572Z" fill="#AFB1B6"/>
<path fill-rule="evenodd" clip-rule="evenodd" d="M7.40792 1.91675C4.17392 1.91675 2.08325 4.12991 2.08325 7.55758V17.8592C2.08325 21.2869 4.17392 23.5001 7.40792 23.5001H18.3419C21.5771 23.5001 23.6666 21.2869 23.6666 17.8592V7.55758C23.6666 4.12991 21.5771 1.91675 18.3419 1.91675H7.40792ZM18.3419 25.2501H7.40792C3.17642 25.2501 0.333252 22.2797 0.333252 17.8592V7.55758C0.333252 3.13708 3.17642 0.166748 7.40792 0.166748H18.3419C22.5734 0.166748 25.4166 3.13708 25.4166 7.55758V17.8592C25.4166 22.2797 22.5734 25.2501 18.3419 25.2501Z" fill="#AFB1B6"/>
</svg>
