<svg width="34" height="32" viewBox="0 0 34 32" fill="none" xmlns="http://www.w3.org/2000/svg">
<path d="M5.95356 28.6316L5.95341 28.6322C5.83748 29.1239 5.87079 29.6025 6.08348 30.0417C6.27288 30.4329 6.54076 30.7626 6.88419 31.0248C7.24551 31.3006 7.66516 31.4547 8.12801 31.4926C8.61537 31.5325 9.07791 31.4106 9.50281 31.1466L16.9992 26.7137L24.4956 31.1465C24.9205 31.4106 25.383 31.5325 25.8704 31.4926C26.333 31.4548 26.7525 31.3008 27.1137 31.0252C27.4575 30.7641 27.7255 30.4348 27.9149 30.0436C28.1277 29.6041 28.1608 29.125 28.0451 28.6326L28.0448 28.6316L26.0599 20.2619L32.6941 14.6357L32.6941 14.6357L32.7002 14.6304C33.0805 14.2973 33.3405 13.8942 33.444 13.4222C33.5417 12.977 33.5115 12.5352 33.3535 12.1086C33.2022 11.7002 32.9691 11.3517 32.6498 11.0774C32.3071 10.7831 31.8649 10.6188 31.3655 10.5488L31.3523 10.5469L31.3389 10.5458L22.5734 9.7918L19.1876 1.90402C18.9904 1.44303 18.6767 1.08034 18.2478 0.839295C17.8537 0.617815 17.4355 0.5 16.9992 0.5C16.5639 0.5 16.146 0.617947 15.7514 0.838897C15.3211 1.07977 15.0069 1.44257 14.8107 1.90431C14.8105 1.90465 14.8104 1.905 14.8102 1.90534L11.425 9.7918L2.65946 10.5458L2.64613 10.5469L2.63288 10.5488C2.13348 10.6188 1.69126 10.7831 1.34865 11.0774C1.02929 11.3517 0.796195 11.7002 0.644905 12.1086L0.644546 12.1095C0.487902 12.5351 0.458757 12.9759 0.556228 13.4204C0.659557 13.8915 0.918269 14.2948 1.29667 14.6291L1.2966 14.6291L1.30432 14.6357L7.93855 20.2619L5.95356 28.6316Z" fill="#EFEFF0" stroke="#AFB1B6"/>
</svg>
